<svg width="11" height="11" viewBox="0 0 11 11" fill="none" xmlns="http://www.w3.org/2000/svg">
<path d="M2.625 5.25C3.16807 5.24972 3.69786 5.41787 4.14136 5.7313C4.58486 6.04473 4.92023 6.48799 5.10125 7H10.5V8.75H5.10125C4.94085 9.20367 4.65884 9.60452 4.28604 9.90875C3.91323 10.213 3.46397 10.4089 2.98735 10.4751C2.51074 10.5412 2.0251 10.4751 1.58352 10.284C1.14193 10.0928 0.761387 9.78392 0.48347 9.39111C0.205553 8.99829 0.0409561 8.53664 0.00766602 8.05661C-0.0256241 7.57657 0.0736736 7.09662 0.294708 6.6692C0.515743 6.24178 0.850009 5.88335 1.26098 5.63305C1.67195 5.38276 2.14381 5.25025 2.625 5.25ZM2.625 7C2.39294 7 2.17038 7.09219 2.00628 7.25628C1.84219 7.42038 1.75 7.64294 1.75 7.875C1.75 8.10706 1.84219 8.32962 2.00628 8.49372C2.17038 8.65781 2.39294 8.75 2.625 8.75C2.85706 8.75 3.07962 8.65781 3.24372 8.49372C3.40781 8.32962 3.5 8.10706 3.5 7.875C3.5 7.64294 3.40781 7.42038 3.24372 7.25628C3.07962 7.09219 2.85706 7 2.625 7ZM7.875 3.60914e-07C8.35619 0.000252667 8.82805 0.132764 9.23902 0.383055C9.64999 0.633346 9.98426 0.991784 10.2053 1.4192C10.4263 1.84662 10.5256 2.32657 10.4923 2.80661C10.459 3.28664 10.2944 3.74829 10.0165 4.14111C9.73861 4.53392 9.35807 4.84279 8.91648 5.03396C8.4749 5.22512 7.98926 5.29123 7.51265 5.22506C7.03603 5.15889 6.58677 4.96299 6.21396 4.65875C5.84116 4.35452 5.55915 3.95367 5.39875 3.5H0V1.75H5.39875C5.57977 1.23799 5.91514 0.794725 6.35864 0.481299C6.80214 0.167874 7.33193 -0.00028434 7.875 3.60914e-07ZM7.875 1.75C7.64294 1.75 7.42038 1.84219 7.25628 2.00628C7.09219 2.17038 7 2.39294 7 2.625C7 2.85706 7.09219 3.07962 7.25628 3.24372C7.42038 3.40781 7.64294 3.5 7.875 3.5C8.10706 3.5 8.32962 3.40781 8.49372 3.24372C8.65781 3.07962 8.75 2.85706 8.75 2.625C8.75 2.39294 8.65781 2.17038 8.49372 2.00628C8.32962 1.84219 8.10706 1.75 7.875 1.75Z" fill="#222222"/>
</svg>
